<svg xmlns="http://www.w3.org/2000/svg" viewBox="0 0 707 314.01"><defs><style>.cls-1{fill:#00953b;}.cls-2{fill:#23085a;}.cls-3{fill:#fff;}.cls-4{fill:#5deb4b;}</style></defs><g id="Layer_2" data-name="Layer 2"><g id="Layer_1-2" data-name="Layer 1"><path class="cls-1" d="M293,0h36.62L500,107V314L293,184Z"/><path class="cls-1" d="M86,0H293V184L86,54Z"/><path class="cls-1" d="M86,0V54L0,0Z"/><path class="cls-2" d="M500,107H707V264a50,50,0,0,1-50,50H500Z"/><path class="cls-3" d="M330,0H537L707,107H500Z"/><path class="cls-3" d="M663.47,210.71a53.37,53.37,0,0,0-2.05-14.56,3.18,3.18,0,0,0-4.1-2.28,3.1,3.1,0,0,0-2.27,4.1,46.68,46.68,0,0,1,1.59,9.56H637.75a92.81,92.81,0,0,0-4.1-25,45.33,45.33,0,0,0,8.88-5.69l.45.45a3.38,3.38,0,1,0,4.78-4.78,54.07,54.07,0,0,0-38.46-16.61h-1.37a54.9,54.9,0,0,0-52.81,40.74,54.34,54.34,0,0,0,5.47,41.65,55.39,55.39,0,0,0,46.89,27.55h1.36a55.62,55.62,0,0,0,27.09-7.29,59.89,59.89,0,0,0,8.65-6.14c.22-.23.45-.23.68-.46a55.86,55.86,0,0,0,18.21-41.2ZM625,178.62a42.77,42.77,0,0,1-13.2,2.73V163.14C617,165,621.59,170.65,625,178.62Zm-19.8-15.48v18.21a52.3,52.3,0,0,1-13.2-2.73C595.41,170.65,600,165,605.2,163.14Zm0,25V207.3H586.31A93.28,93.28,0,0,1,589.72,185,50.83,50.83,0,0,0,605.2,188.18Zm0,25.95v19.34a52.22,52.22,0,0,0-15.48,3.19,83,83,0,0,1-3.41-22.31H605.2Zm0,26.17v18.21c-5-1.82-9.79-7.51-13.2-15.48A42.77,42.77,0,0,1,605.2,240.3ZM591.54,256a49.71,49.71,0,0,1-11.83-6.38,32.31,32.31,0,0,1,5.91-3.64A84.36,84.36,0,0,0,591.54,256Zm20.49,2.5V240.3a52.74,52.74,0,0,1,13.2,2.73C621.59,251,617,256.69,612,258.51Zm0-25V214.35h18.89a93.78,93.78,0,0,1-3.41,22.31A52.29,52.29,0,0,0,612,233.47Zm18.89-26.17H612V188.18A52.29,52.29,0,0,0,627.51,185,108.89,108.89,0,0,1,630.92,207.3Zm.23-31.41a54.53,54.53,0,0,0-5.69-10.24A49.67,49.67,0,0,1,637.29,172,46.17,46.17,0,0,1,631.15,175.89Zm-46.66-6.83a41.27,41.27,0,0,1,7.28-3.41,54.4,54.4,0,0,0-5.92,10.24,53.25,53.25,0,0,1-5.92-3.64A32.29,32.29,0,0,1,584.49,169.06Zm-10,7.51a44.87,44.87,0,0,0,8.88,5.69,92.81,92.81,0,0,0-4.1,25H560.36a42.68,42.68,0,0,1,1.59-9.11A49.33,49.33,0,0,1,574.47,176.57Zm-7.74,58.27a51.12,51.12,0,0,1-6.37-20.71h18.89a92.8,92.8,0,0,0,4.1,25,45.8,45.8,0,0,0-8.88,5.69A43.4,43.4,0,0,1,566.73,234.84Zm65.78,17.75a49.51,49.51,0,0,1-7,3.42,52.73,52.73,0,0,0,5.69-10,53.25,53.25,0,0,1,5.92,3.64C635.7,250.55,634.11,251.68,632.51,252.59Zm10-7.51a45.8,45.8,0,0,0-8.88-5.69,92.81,92.81,0,0,0,4.1-25h18.89A50,50,0,0,1,642.53,245.08Z"/><path class="cls-4" d="M657.55,182.49a5.14,5.14,0,0,1-1.82,7,.23.23,0,0,0-.23.23,5.2,5.2,0,0,1-5-9.1A5,5,0,0,1,657.55,182.49Z"/></g></g></svg>